# WaveFront *.obj file (generated by Cinema 4D)

mtllib ./Player.mtl

v 69.97194671630859 25.4959545135498 4.60721254348755
v 69.97194671630859 34.71038055419922 4.60721254348755
v 97.61521911621094 25.4959545135498 4.60721254348755
v 97.61521911621094 34.71038055419922 4.60721254348755
v 97.61521911621094 25.4959545135498 -4.60721254348755
v 97.61521911621094 34.71038055419922 -4.60721254348755
v 69.97194671630859 25.4959545135498 -4.60721254348755
v 69.97194671630859 34.71038055419922 -4.60721254348755
v 108.43907165527344 19.29464721679688 10.80852031707764
v 108.43907165527344 40.91168594360352 10.80852031707764
v 108.43907165527344 19.29464721679688 -10.80852031707764
v 108.43907165527344 40.91168594360352 -10.80852031707764
v -50 -25 25
v -50 0 25
v -50 25 25
v -28.04521369934082 -25 25
v -25 0 25
v -25 25 25
v 0 -25 25
v 0 0 25
v 0 25 25
v 25 -25 25
v 25 0 25
v 25 25 25
v 50 -25 25
v 50 0 25
v 50 25 25
v 50 -25 0
v 92.44642639160156 31.44768142700195 0
v 50 25 0
v 41.32153701782227 -25 12.5
v 12.5 -25 12.5
v -12.5 -25 12.5
v -49.32917785644531 -25 12.5
v 50 -25 12.5
v 25 -25 12.5
v 0 -25 12.5
v -28.04521369934082 -25 12.5
v 41.32153701782227 -25 0
v 12.5 -25 0
v -12.5 -25 0
v -49.32917785644531 -25 0
v -50 -25 12.5
v 41.32153701782227 -25 25
v 12.5 -25 25
v -50 -25 0
v -50 0 0
v -50 25 0
v -25 25 0
v 0 25 0
v 25 25 0
v -28.04521369934082 -25 0
v 0 -25 0
v 25 -25 0
v 50 -20.70000076293945 20.70000076293945
v 50 0 20.70000076293945
v 51.60541915893555 26.56259727478027 20.70000076293945
v 50 -20.70000076293945 0
v 51.60541915893555 26.56259727478027 0
v -12.5 -25 25
v -49.32917785644531 -25 25
v 92.44642639160156 35.61810684204102 0
v 65.39920043945312 2.83891272544861 20.70000076293945
v 65.39920043945312 23.53891372680664 20.70000076293945
v 65.39920043945312 38.36983871459961 20.70000076293945
v 65.39920043945312 2.83891272544861 0
v 65.39920043945312 38.36983871459961 0
v 92.44642639160156 24.98202323913574 0
v 92.44642639160156 35.61810684204102 10.03950023651123
v 92.44642639160156 31.44768142700195 10.03950023651123
v 92.44642639160156 24.98202323913574 10.03950023651123
v 25 -62 25
v 37.5 -62 12.5
v 25 -62 12.5
v 37.5 -62 12.25346755981445
v 37.5 -62 25
v 25 -62 12.25346755981445
v 25 -35.89273071289062 10.37950706481934
v 37.5 -35.89273071289062 10.37950706481934
v -25.69159317016602 -62 25
v -37.5 -62 12.5
v -25.69159317016602 -62 12.5
v -37.5 -62 11.07134819030762
v -25.69159317016602 -62 11.07134819030762
v -37.5 -62 25
v -37.5 -35.92203140258789 9.99858951568604
v -28.04521369934082 -35.92203140258789 9.99858951568604
v 65.39920043945312 30.95437622070312 20.70000076293945
v 58.50231170654297 32.46621704101562 20.70000076293945
v 57.69960021972656 11.76945686340332 20.70000076293945
v 50.80271148681641 13.28129863739014 20.70000076293945
v 58.10095596313477 22.11783790588379 20.70000076293945
v 65.39920043945312 38.36983871459961 21.61902618408203
v 65.39920043945312 30.95437622070312 21.61902618408203
v 58.50231170654297 32.46621704101562 21.61902618408203
v 58.10095596313477 22.11783790588379 21.61902618408203
v 52.26673126220703 53.71181488037109 20.70000076293945
v 52.71308517456055 47.80819702148438 20.70000076293945
v 52.26673126220703 53.71181488037109 23.91500091552734
v 52.71308517456055 47.80819702148438 23.91500091552734
v -50 -25 -25
v -50 0 -25
v -50 25 -25
v -28.04521369934082 -25 -25
v -25 0 -25
v -25 25 -25
v 0 -25 -25
v 0 0 -25
v 0 25 -25
v 25 -25 -25
v 25 0 -25
v 25 25 -25
v 50 -25 -25
v 50 0 -25
v 50 25 -25
v 41.32153701782227 -25 -12.5
v 12.5 -25 -12.5
v -12.5 -25 -12.5
v -49.32917785644531 -25 -12.5
v 50 -25 -12.5
v 25 -25 -12.5
v 0 -25 -12.5
v -28.04521369934082 -25 -12.5
v -50 -25 -12.5
v 41.32153701782227 -25 -25
v 12.5 -25 -25
v 50 -20.70000076293945 -20.70000076293945
v 50 0 -20.70000076293945
v 51.60541915893555 26.56259727478027 -20.70000076293945
v -12.5 -25 -25
v -49.32917785644531 -25 -25
v 65.39920043945312 2.83891272544861 -20.70000076293945
v 65.39920043945312 23.53891372680664 -20.70000076293945
v 65.39920043945312 38.36983871459961 -20.70000076293945
v 92.44642639160156 35.61810684204102 -10.03950023651123
v 92.44642639160156 31.44768142700195 -10.03950023651123
v 92.44642639160156 24.98202323913574 -10.03950023651123
v 25 -62 -25
v 37.5 -62 -12.5
v 25 -62 -12.5
v 37.5 -62 -12.25346755981445
v 37.5 -62 -25
v 25 -62 -12.25346755981445
v 25 -35.89273071289062 -10.37950706481934
v 37.5 -35.89273071289062 -10.37950706481934
v -25.69159317016602 -62 -25
v -37.5 -62 -12.5
v -25.69159317016602 -62 -12.5
v -37.5 -62 -11.07134819030762
v -25.69159317016602 -62 -11.07134819030762
v -37.5 -62 -25
v -37.5 -35.92203140258789 -9.99858951568604
v -28.04521369934082 -35.92203140258789 -9.99858951568604
v 65.39920043945312 30.95437622070312 -20.70000076293945
v 58.50231170654297 32.46621704101562 -20.70000076293945
v 57.69960021972656 11.76945686340332 -20.70000076293945
v 50.80271148681641 13.28129863739014 -20.70000076293945
v 58.10095596313477 22.11783790588379 -20.70000076293945
v 65.39920043945312 38.36983871459961 -21.61902618408203
v 65.39920043945312 30.95437622070312 -21.61902618408203
v 58.50231170654297 32.46621704101562 -21.61902618408203
v 58.10095596313477 22.11783790588379 -21.61902618408203
v 52.26673126220703 53.71181488037109 -20.70000076293945
v 52.71308517456055 47.80819702148438 -20.70000076293945
v 52.26673126220703 53.71181488037109 -23.91500091552734
v 52.71308517456055 47.80819702148438 -23.91500091552734
v -50 12.5 25
v -50 0 12.5
v -50 12.5 0
v -50 25 12.5
v -50 12.5 -25
v -50 0 -12.5
v -50 25 -12.5
v -50 12.5 12.5
v -50 12.5 -12.5
v -79.24488067626953 -28.94305038452148 0
v -79.24488067626953 -34.48441696166992 0
v -79.24488067626953 -28.94305038452148 3.19281578063965
v -79.24488067626953 -28.94305038452148 -3.19281578063965
v -79.24488067626953 -34.48441696166992 3.19281578063965
v -79.24488067626953 -34.48441696166992 -3.19281578063965
v 86.6512451171875 28.83965682983398 10.03950023651123
v 92.44642639160156 27.13724136352539 10.03950023651123
v 86.6512451171875 28.83965682983398 0
v 92.44642639160156 27.13724136352539 0
v 86.6512451171875 28.83965682983398 -10.03950023651123
v 92.44642639160156 27.13724136352539 -10.03950023651123
# 187 vertices

vn 0 0 1
vn -0.25721445679665 0 0.96635437011719
vn 1 0 0
vn -0.25721442699432 0 -0.96635437011719
vn 0 0 -1
vn -1 0 0
vn 0 1 0
vn -0.25721436738968 0.96635437011719 0
vn 0 -1 0
vn -0.25721442699432 -0.96635437011719 0
vn -0.49712055921555 0 0.86768144369125
vn -0.49712044000626 0.86768156290054 0
vn -0.49712055921555 0 -0.8676815032959
vn -0.49712055921555 -0.8676815032959 0
vn 0.00000000000005 1 0
vn 0 1 -0.00000000000012
vn -1 0 0
vn 0 0 1
vn -0.00000202585466 0 1
vn nan nan nan
vn 0.00000000000001 1 -0.00000013256961
vn 0 -0.00000000000001 1
vn 1 0 0
vn -1 0 0
vn 0 -1 0
vn 0 1 0
vn 0 0 1
vn 0.00000000001945 1 0
vn 0 -1 0
vn 0.10121557116508 0.9948645234108 0
vn 0.18662331998348 0 0.98243153095245
vn 0.2786808013916 0 0.96038377285004
vn 0.36668926477432 0 0.9303435087204
vn -1 0 -0.00000015795537
vn 0.36668926477432 0 0.93034344911575
vn -0.00350520270877 0 0.99999386072159
vn -1 0 0
vn 0.63347017765045 -0.77376711368561 0
vn 0.7438091635704 -0.66839206218719 0
vn 0.12416686117649 0 0.99226135015488
vn -0.65028345584869 0.75969165563583 0
vn -0.65028327703476 0.75969183444977 0.00000003044845
vn -0.6502833366394 0.75969177484512 0
vn 0.00000000246429 1 0
vn -0.67422848939896 0.73852276802063 0
vn -0.66631972789764 0.74566614627838 0
vn 1 -0.00000001235321 0.00000448729361
vn 0 0.00000000059505 -1
vn 0.13327307999134 -0.01345320325345 0.99098801612854
vn 0.98188346624374 -0.1894858777523 0
vn 0.98997336626053 -0.14125417172909 0
vn 0 -0.53333884477615 0.84590166807175
vn 0.00000016596903 0 -1
vn -0.00021021944121 -0.99999994039536 -0.00032640903373
vn -0.69748514890671 0.71659922599792 0
vn 0.94191867113113 -0.05692857131362 0.33098095655441
vn 0.98409396409988 -0.03947589918971 0.17320714890957
vn 0.96569430828094 -0.02855968289077 0.25810617208481
vn 1 0 0
vn 0.99954450130463 -0.03017831780016 0
vn 0.99790734052658 -0.02019420266151 0.06142600625753
vn nan nan nan
vn 0.0000000483537 0 1
vn 0 -0.99999988079071 -0.00043672014726
vn 0.15975116193295 -0.98715728521347 -0.00000000053297
vn -1 -0.00000000000004 0
vn -0.0000000000013 -1 0.00000000539304
vn -1 0 0
vn 0 1 0
vn 1 0 -0.00000737392156
vn -0.96930807828903 0.24584925174713 0
vn -0.96930807828903 0.24584923684597 0
vn 0 0 -1
vn 0.00013206939911 1 0
vn 0 0 1
vn 0.99470841884613 -0.1027382388711 0
vn 0.97544401884079 -0.16130591928959 -0.1499647051096
vn 0.97202897071838 -0.07091663777828 -0.22389833629131
vn 0.95537841320038 -0.19000396132469 -0.22616492211819
vn 0.89913702011108 -0.03543166443706 -0.43623068928719
vn 0 -0.0715950652957 -0.99743378162384
vn 0 -0.40453138947487 -0.91452407836914
vn 0 1 0.00000000083049
vn 0.94361281394958 -0.33105114102364 0
vn -0.00000000041542 0 1
vn 0 -0.68984603881836 -0.72395610809326
vn -0.00000000008799 0 -1
vn 0.99525541067123 0.0700202062726 -0.06755597889423
vn 0.9978928565979 0.04669348150492 -0.04505019262433
vn 0.99697941541672 0.03823263198137 -0.06760434061289
vn 0.98793584108353 0.07623428851366 -0.13480025529861
vn 0 -0.04110182821751 -0.99915498495102
vn -0.95250499248505 -0.30452299118042 0
vn 0.99798291921616 0.06348305940628 0
vn -0.32058152556419 -0.6310613155365 -0.70639157295227
vn -0.60727822780609 -0.52018332481384 -0.60051852464676
vn 1 0 0
vn 0 -0.67523741722107 -0.73760044574738
vn 0.94101703166962 -0.33835914731026 0
vn 0.77102619409561 -0.63680338859558 0
vn -0.99924874305725 0.0387552715838 0
vn -0.98706263303757 -0.16033518314362 0
vn -0.97630071640015 -0.21641829609871 0
vn -0.99715399742126 -0.07539165765047 0
vn 0.75969183444977 0.65028321743011 0
vn 0.26414406299591 -0.02666392736137 0.96411460638046
vn -1 0 0
vn 1 0 0
vn 0.00000000000266 1 0
vn -0.00000000000004 0 -1
vn 0 0 1
vn 0 -0.00017664955521 1
vn 0 0.00000001372412 1
vn 0 -1 0
vn 1 0 0.00000021302363
vn 0 0 -1
vn 0 -1 0
vn -0.99998211860657 0 0.00598127394915
vn 0 -1 -0.00000512812358
vn 0 0 -1
vn 0 -1 0
vn 1 0 0
vn 0 -0.00004394221469 -1
vn 0.18662330508232 0 -0.98243153095245
vn 0.36668926477432 0 -0.9303435087204
vn 0.2786808013916 0 -0.96038377285004
vn 0.00002030129326 0 -1
vn 0.36668926477432 0 -0.93034344911575
vn -1 0 0
vn 1 0 0
vn 0.12416686117649 0 -0.99226135015488
vn -0.65028327703476 0.75969183444977 -0.00000003044844
vn 0 0.00033117033308 0.99999994039536
vn 0 1 0
vn 0 0 1
vn 0.13327307999134 -0.01345320325345 -0.99098801612854
vn 0 -1 0.00004299790089
vn -0.00000000000401 -0.00000000000001 -1
vn 0 0 -1
vn 0.94191867113113 -0.05692857131362 -0.33098098635674
vn 0.96569430828094 -0.02855968475342 -0.25810620188713
vn 0.98409396409988 -0.03947589918971 -0.17320717871189
vn 0 -1 0
vn 0.99790734052658 -0.02019420266151 -0.06142600625753
vn 0 0 1
vn -1 0 0
vn 0 1 0
vn 0 -1 0
vn -0.0000001136129 0 -1
vn 0 0 1
vn 0 0 1
vn 0 1 -0.00000000001699
vn 0 0 -1
vn 0 0.00000024980136 1
vn 0 -1 -0.00000038833429
vn -1 0 0
vn 0.97202897071838 -0.07091663777828 0.22389833629131
vn 0.97544401884079 -0.16130591928959 0.1499647051096
vn 0.89913702011108 -0.03543166443706 0.43623068928719
vn 0.95537841320038 -0.19000396132469 0.22616492211819
vn 0 -0.0715950652957 0.99743378162384
vn 0 -0.40453138947487 0.91452407836914
vn -0.0001292147208 0.99976164102554 0.02183198556304
vn 0 -0.00000000000031 -1
vn 0 -0.68984603881836 0.72395610809326
vn 1 0 -0.0000000000043
vn 0.99525541067123 0.0700202062726 0.06755597889423
vn 0.98793584108353 0.07623428851366 0.13480025529861
vn 0.99697941541672 0.03823263198137 0.06760434061289
vn 0.9978928565979 0.04669348150492 0.04505019262433
vn 0 -0.04110182821751 0.99915498495102
vn -0.32058152556419 -0.6310613155365 0.70639157295227
vn -0.60727822780609 -0.52018332481384 0.60051852464676
vn -0.00000008372357 -0.99408632516861 0.10859272629023
vn 0 -0.67523741722107 0.73760044574738
vn 0.26414406299591 -0.02666392736137 -0.96411460638046
vn -0.87911629676819 0.47660732269287 0
vn -0.87911629676819 0.47660726308823 0
vn -0.30326271057129 0 0.95290696620941
vn 0.84897446632385 -0.5284338593483 0
vn -0.30326271057129 0 -0.95290696620941
vn 0.28185400366783 0.95945727825165 0
vn 0.40413236618042 -0.89800554513931 0.17396293580532
vn 0.41038993000984 -0.91191011667252 0
vn 0.38555055856705 -0.8567156791687 0.34262076020241
vn 0 0 0
vn 0.19545720517635 0.66535466909409 0.7204857468605
vn 0.40413239598274 -0.89800548553467 -0.173962906003
vn 0.19545724987984 0.66535437107086 -0.72048592567444
vn 0.38555061817169 -0.8567156791687 -0.34262073040009
# 190 normals

vt 0 0 0
vt 0 1 0
vt 1 1 0
vt 1 0 0
vt 0.86000001430511 0.86000001430511 0
vt 0.86000001430511 0.13999998569489 0
vt 0.13999998569489 0.13999998569489 0
vt 0.13999998569489 0.86000001430511 0
vt 0.25 0 0
vt 0.125 0 0
vt 0.25 0.5 0
vt 0 1 0
vt 0 0.5 0
vt 0 1 0
vt 0 1 0
vt 0.5 0 0
vt 0.375 0 0
vt 0.5 0.5 0
vt 0 1 0
vt 0 1 0
vt -41.708984375 5339.25 -0.04072952270508
vt 0.75 0 0
vt 0.625 0 0
vt 0.75 0.5 0
vt 0 1 0
vt 0 1 0
vt -41.740234375 5343.25 -2671.25
vt 0.875 0 0
vt 1 0.5 0
vt 0 1 0
vt 0 1 0
vt 0 1 0
vt 0 0.75 0
vt 0 1 0
vt 0.25 1 0
vt 0 1 0
vt -41.818359375 21410 -0.00015951693058
vt 0.5 1 0
vt 0.75 1 0
vt 0.08599999547005 0.08600008487701 0
vt 0.08599999547005 0.22400009632111 0
vt 0.5 0.22399997711182 0
vt 0.5 0.08599996566772 0
vt 0.08599999547005 0.91400003433228 0
vt 0.5 0.91400003433228 0
vt 0.08599999547005 0.5 0
vt 0.08599999547005 0.70700001716614 0
vt 0 1 0
vt 0 1 0
vt -41.927734375 42931 -2683.25
vt -41.958984375 85925 -0.04097366333008
vt -0.00000000000001 1 0
vt -0.00000000000001 1 0
vt -0.00000000000001 1 0
vt -84.13671875 1.00008022785187 -0.0001604706049
vt -0.00000000000001 1 0
vt -0.00000000000001 1 0
vt -0.00000000000001 1 0
vt -0.00000000000002 1 0
vt -84.29296875 1.0001608133316 -0.04115676879883
vt -0.00000000000002 1 0
vt -0.00000000000002 1 0
vt 0.875 0.5 0
vt 0.875 0.75 0
vt 1 0.75 0
vt 0.875 1 0
vt 0.75 0.75 0
vt 0.625 0.5 0
vt 0.625 0.75 0
vt 0.625 1 0
vt 0.5 0.75 0
vt -0.00000000000003 1 0
vt -84.57421875 1.00064516067505 -10.5712890625
vt -0.00000000000004 1 0
vt -0.00000000000004 1 0
vt 0 0.25 0
vt -0.00000000000006 1 0
vt -84.79296875 1.0025874376297 -0.04140090942383
vt -0.00000000000007 1 0
vt 0.375 0.5 0
vt 0.375 0.75 0
vt 0.375 1 0
vt 0.25 0.75 0
vt 0.125 0.5 0
vt 0.125 0.75 0
vt 0.125 1 0
vt -0.00000000000022 1 0
vt -0.00000000000025 1 0
vt -0.00000000000031 1 0
vt -0.00000000000045 1 0
vt -0.00000000000091 1 0
vt -0.00000000000101 1 0
vt -0.00000000000108 1 0
vt -85.82421875 1.67044067382812 -10.7275390625
vt -0.00000000000122 1 0
vt -0.00000000000131 1 0
vt -85.88671875 2.34185791015625 -0.000163808465
vt -0.00000000000145 1 0
vt -0.00000000000156 1 0
vt -0.0000000000017 1 0
vt -0.0000000000018 1 0
vt -0.00000000000194 1 0
vt -86.04296875 3.6885986328125 -0.04201126098633
vt -0.00000000000221 1 0
vt -0.0000000000024 1 0
vt -86.26171875 11.78173828125 -0.00016452372074
vt -0.00000000000397 1 0
vt -0.00000000000434 1 0
vt -0.00000000000533 1 0
vt -0.0000000000059 1 0
vt -0.0000000000063 1 0
vt -0.00000000000885 1 0
vt -0.00000000000976 1 0
vt -0.0000000000109 1 0
vt -0.00000000001232 1 0
vt -86.69921875 87.69140625 -10.8369140625
vt -0.0000000000134 1 0
vt -0.00000000001414 1 0
vt -86.76171875 174.5078125 -0.00016547739506
vt -0.00000000001588 1 0
vt -0.00000000002861 1 0
vt -0.00000000003176 1 0
vt -0.00000000003631 1 0
vt -0.00000000003949 1 0
vt -0.00000000005359 1 0
vt -0.00000000005723 1 0
vt -0.00000000006534 1 0
vt -0.00000000021799 1 0
vt -0.00000000023073 1 0
vt -87.79296875 44947 -0.04286575317383
vt -0.00000000043235 1 0
vt 0.08599999547005 0.3620001077652 0
vt 0.5 0.36199998855591 0
# 133 texture coordinates

o Doggo
usemtl default
f 3/4/2 4/3/2 2/2/1 1/1/1
f 11/8/3 12/7/3 10/6/3 9/5/3
f 7/4/5 8/3/5 6/2/4 5/1/4
f 1/4/6 2/3/6 8/2/6 7/1/6
f 4/4/8 6/3/8 8/2/7 2/1/7
f 5/4/10 3/3/10 1/2/9 7/1/9
f 10/6/11 4/2/2 3/1/2 9/5/11
f 12/7/12 6/3/8 4/2/8 10/6/12
f 11/8/13 5/4/4 6/3/4 12/7/13
f 9/5/14 3/1/10 5/4/10 11/8/14
f 17/11/1 61/10/1 16/9/1
f 14/13/1 13/1/1 61/10/1
f 17/11/1 14/13/1 61/10/1
f 20/18/1 60/17/1 19/16/1
f 17/11/1 16/9/1 60/17/1
f 20/18/1 17/11/1 60/17/1
f 23/24/1 45/23/1 22/22/1
f 20/18/1 19/16/1 45/23/1
f 23/24/1 20/18/1 45/23/1
f 26/29/1 44/28/1 25/4/1
f 23/24/1 22/22/1 44/28/1
f 26/29/1 23/24/1 44/28/1
f 17/11/1 167/33/1 14/13/1
f 18/35/1 15/2/1 167/33/1
f 17/11/1 18/35/1 167/33/1
f 20/18/1 21/38/1 18/35/1 17/11/1
f 23/24/1 24/39/1 21/38/1 20/18/1
f 26/29/1 27/3/1 24/39/1 23/24/1
f 68/43/3 185/42/3 183/41/3 71/40/3
f 62/45/30 67/45/30 65/44/30 69/44/30
f 29/18/3 62/45/3 69/44/3 70/46/3
f 70/46/33 88/47/32 64/46/31
f 69/44/33 65/44/35 88/47/32
f 70/46/33 69/44/33 88/47/32
f 71/40/38 63/40/39 66/43/39 68/43/38
f 183/41/33 64/46/31 63/40/40 71/40/33
f 67/45/43 89/44/42 65/44/41
f 59/45/46 57/44/45 89/44/42
f 67/45/43 59/45/46 89/44/42
f 88/47/32 92/47/1 90/46/1 64/46/31
f 92/47/1 91/47/1 56/46/1 90/46/1
f 89/44/1 57/44/1 91/47/1 92/47/1
f 93/44/49 95/44/49 96/47/1 94/47/1
f 63/40/39 55/40/51 58/43/50 66/43/39
f 55/40/1 90/46/1 56/46/1
f 63/40/40 64/46/31 90/46/1
f 55/40/1 63/40/40 90/46/1
f 59/45/46 30/38/55 27/2/55 57/44/45
f 27/2/58 91/47/57 57/44/56
f 26/13/61 56/46/60 91/47/57
f 27/2/58 26/13/61 91/47/57
f 58/43/50 55/40/51 35/9/3
f 55/40/51 25/1/3 35/9/3
f 58/43/50 35/9/3 28/16/3
f 56/46/60 26/13/61 25/1/3 55/40/51
f 28/29/9 35/65/9 31/64/9 39/63/9
f 35/65/9 25/3/9 44/66/9 31/64/9
f 73/64/9 76/66/9 72/39/9 74/67/9
f 75/63/9 73/64/9 74/67/9 77/24/9
f 54/24/9 36/67/9 32/69/9 40/68/9
f 36/67/9 22/39/9 45/70/9 32/69/9
f 32/69/9 45/70/9 19/38/9 37/71/9
f 14/29/6 43/22/6 13/4/6
f 47/18/6 46/16/6 43/22/6
f 43/22/6 168/24/6 47/18/6
f 43/22/6 14/29/6 168/24/6
f 40/68/9 32/69/9 37/71/9 53/18/9
f 168/24/6 174/67/6 169/71/6 47/18/6
f 180/67/6 178/39/72 176/38/71 177/71/6
f 167/65/6 15/3/6 170/39/6 174/67/6
f 14/29/6 167/65/6 174/67/6 168/24/6
f 18/9/7 170/76/7 15/1/7
f 49/11/7 48/13/7 170/76/7
f 18/9/7 49/11/7 170/76/7
f 21/16/7 50/18/7 49/11/7 18/9/7
f 24/22/7 51/24/7 50/18/7 21/16/7
f 27/4/7 30/29/7 51/24/7 24/22/7
f 53/18/9 37/71/9 33/81/9 41/80/9
f 37/71/9 19/38/9 60/82/9 33/81/9
f 33/81/9 60/82/9 16/35/9 38/83/9
f 41/80/9 33/81/9 38/83/9 52/11/9
f 84/11/9 82/83/9 81/85/9 83/84/9
f 82/83/9 80/35/9 85/86/9 81/85/9
f 34/85/9 61/86/9 13/2/9 43/33/9
f 42/84/9 34/85/9 43/33/9 46/13/9
f 72/39/6 22/39/6 36/67/6 74/67/6
f 76/66/1 44/66/1 22/39/1 72/39/1
f 73/64/78 31/64/77 44/66/76 76/66/76
f 36/67/6 78/24/6 77/24/6 74/67/6
f 75/63/80 79/63/79 31/64/77 73/64/78
f 77/24/81 78/24/82 79/63/82 75/63/81
f 36/67/6 54/24/6 78/24/6
f 79/63/79 39/63/84 31/64/77
f 78/24/82 54/24/86 39/63/86 79/63/82
f 81/85/6 86/84/6 83/84/6
f 84/11/91 87/11/90 38/83/89 82/83/88
f 83/84/92 86/84/92 87/11/92 84/11/92
f 85/86/93 61/86/93 34/85/93 81/85/93
f 80/35/1 16/35/1 61/86/1 85/86/1
f 82/83/88 38/83/89 16/35/94 80/35/94
f 81/85/96 34/85/96 42/84/95 86/84/95
f 87/11/90 52/11/3 38/83/89
f 86/84/95 42/84/95 52/11/98 87/11/98
f 96/47/100 92/47/100 88/47/99 94/47/99
f 95/44/102 89/44/102 92/47/101 96/47/101
f 99/44/104 97/44/104 98/44/103 100/44/103
f 94/47/99 88/47/99 65/44/3 93/44/3
f 98/44/103 89/44/102 95/44/102 100/44/103
f 97/44/5 65/44/5 89/44/5 98/44/5
f 99/44/105 93/44/105 65/44/105 97/44/105
f 100/44/106 95/44/49 93/44/49 99/44/106
f 131/10/5 105/11/5 104/9/5
f 101/1/5 102/13/5 131/10/5
f 102/13/5 105/11/5 131/10/5
f 130/17/5 108/18/5 107/16/5
f 104/9/5 105/11/5 130/17/5
f 105/11/5 108/18/5 130/17/5
f 126/23/5 111/24/5 110/22/5
f 107/16/5 108/18/5 126/23/5
f 108/18/5 111/24/5 126/23/5
f 125/28/5 114/29/5 113/4/116
f 110/22/5 111/24/5 125/28/5
f 111/24/5 114/29/5 125/28/5
f 106/35/5 171/33/5 103/2/120
f 105/11/5 102/13/5 171/33/5
f 106/35/5 105/11/5 171/33/5
f 106/35/5 109/38/5 108/18/5 105/11/5
f 109/38/5 112/39/5 111/24/5 108/18/5
f 112/39/5 115/3/5 114/29/5 111/24/5
f 137/40/3 187/41/3 185/42/3 68/43/3
f 134/44/30 67/45/30 62/45/30 135/44/30
f 135/44/3 62/45/3 29/18/3 136/46/3
f 154/47/126 136/46/125 133/46/124
f 134/44/128 135/44/125 154/47/126
f 135/44/125 136/46/125 154/47/126
f 66/43/39 132/40/39 137/40/38 68/43/38
f 132/40/131 133/46/124 187/41/125 137/40/125
f 155/44/132 67/45/43 134/44/41
f 129/44/45 59/45/46 155/44/132
f 59/45/46 67/45/43 155/44/132
f 156/46/5 158/47/5 154/47/126 133/46/124
f 128/46/5 157/47/5 158/47/5 156/46/5
f 157/47/5 129/44/5 155/44/5 158/47/5
f 162/47/5 161/44/136 159/44/136 160/47/5
f 58/43/50 127/40/51 132/40/39 66/43/39
f 156/46/5 127/40/5 128/46/5
f 133/46/124 132/40/131 156/46/5
f 132/40/131 127/40/5 156/46/5
f 115/2/55 30/38/55 59/45/46 129/44/45
f 157/47/142 115/2/141 129/44/140
f 128/46/60 114/13/144 157/47/142
f 114/13/144 115/2/141 157/47/142
f 127/40/51 58/43/50 120/9/3
f 113/1/3 127/40/51 120/9/3
f 120/9/3 58/43/50 28/16/3
f 113/1/3 114/13/144 128/46/60 127/40/51
f 116/64/9 120/65/9 28/29/9 39/63/9
f 125/66/9 113/3/9 120/65/9 116/64/9
f 138/39/9 142/66/9 139/64/9 140/67/9
f 140/67/9 139/64/9 141/63/9 143/24/9
f 117/69/9 121/67/9 54/24/9 40/68/9
f 126/70/9 110/39/9 121/67/9 117/69/9
f 107/38/9 126/70/9 117/69/9 122/71/9
f 124/22/6 102/29/6 101/4/6
f 46/16/6 47/18/6 124/22/6
f 124/22/6 172/24/6 102/29/6
f 124/22/6 47/18/6 172/24/6
f 122/71/9 117/69/9 40/68/9 53/18/9
f 169/71/6 175/67/6 172/24/6 47/18/6
f 175/67/6 171/65/6 102/29/6 172/24/6
f 173/39/6 103/3/6 171/65/6 175/67/6
f 176/38/71 179/39/71 181/67/6 177/71/6
f 49/11/7 173/76/7 48/13/7
f 106/9/7 103/1/7 173/76/7
f 49/11/7 106/9/7 173/76/7
f 49/11/7 50/18/7 109/16/7 106/9/7
f 50/18/7 51/24/7 112/22/7 109/16/7
f 51/24/7 30/29/7 115/4/7 112/22/7
f 118/81/9 122/71/9 53/18/9 41/80/9
f 130/82/9 107/38/9 122/71/9 118/81/9
f 104/35/9 130/82/9 118/81/9 123/83/9
f 123/83/9 118/81/9 41/80/9 52/11/9
f 147/85/9 148/83/9 150/11/9 149/84/9
f 151/86/9 146/35/9 148/83/9 147/85/9
f 101/2/9 131/86/9 119/85/9 124/33/9
f 124/33/9 119/85/9 42/84/9 46/13/9
f 121/67/6 110/39/6 138/39/6 140/67/6
f 110/39/5 125/66/5 142/66/5 138/39/5
f 125/66/76 116/64/158 139/64/157 142/66/76
f 143/24/6 144/24/6 121/67/6 140/67/6
f 116/64/158 145/63/160 141/63/159 139/64/157
f 145/63/162 144/24/162 143/24/161 141/63/161
f 54/24/6 121/67/6 144/24/6
f 39/63/84 145/63/160 116/64/158
f 39/63/165 54/24/165 144/24/162 145/63/162
f 152/84/6 147/85/6 149/84/6
f 123/83/170 153/11/169 150/11/168 148/83/167
f 153/11/171 152/84/171 149/84/171 150/11/171
f 119/85/93 131/86/93 151/86/93 147/85/93
f 131/86/5 104/35/5 146/35/5 151/86/5
f 104/35/94 123/83/170 148/83/167 146/35/94
f 42/84/172 119/85/173 147/85/173 152/84/172
f 52/11/3 153/11/169 123/83/170
f 52/11/175 42/84/172 152/84/172 153/11/175
f 154/47/99 158/47/100 162/47/100 160/47/99
f 158/47/101 155/44/102 161/44/102 162/47/101
f 164/44/103 163/44/104 165/44/104 166/44/103
f 134/44/3 154/47/99 160/47/99 159/44/3
f 161/44/102 155/44/102 164/44/103 166/44/103
f 155/44/1 134/44/1 163/44/1 164/44/1
f 134/44/105 159/44/105 165/44/105 163/44/105
f 159/44/136 161/44/136 166/44/176 165/44/176
f 178/39/72 170/39/178 48/38/177 176/38/71
f 180/67/179 174/67/179 170/39/179 178/39/179
f 177/71/180 169/71/180 174/67/180 180/67/180
f 181/67/180 175/67/180 169/71/180 177/71/180
f 179/39/181 173/39/181 175/67/181 181/67/181
f 176/38/71 48/38/177 173/39/177 179/39/71
f 185/42/182 184/133/182 182/132/182 183/41/182
f 184/133/184 29/18/184 70/46/183 182/132/183
f 182/132/183 70/46/183 64/46/185
f 183/41/187 182/132/187 64/46/187
f 187/41/182 186/132/182 184/133/182 185/42/182
f 186/132/188 136/46/188 29/18/184 184/133/184
f 133/46/189 186/132/189 187/41/189
f 133/46/190 136/46/188 186/132/188

